<svg class="toggle-menu__icon" width="33" height="33" viewBox="0 0 48 48" xmlns="http://www.w3.org/2000/svg" xmlns:sketch="http://www.bohemiancoding.com/sketch/ns"><path d="M2.4 11.833h43.2c1.325 0 2.4-1.082 2.4-2.417 0-1.335-1.075-2.417-2.4-2.417h-43.2c-1.325 0-2.4 1.082-2.4 2.417 0 1.335 1.075 2.417 2.4 2.417zm43.2 9.667h-43.2c-1.325 0-2.4 1.082-2.4 2.417 0 1.335 1.075 2.417 2.4 2.417h43.2c1.325 0 2.4-1.082 2.4-2.417 0-1.335-1.075-2.417-2.4-2.417zm0 14.5h-43.2c-1.325 0-2.4 1.082-2.4 2.417 0 1.335 1.075 2.417 2.4 2.417h43.2c1.325 0 2.4-1.082 2.4-2.417 0-1.335-1.075-2.417-2.4-2.417z" sketch:type="MSShapeGroup" fill="#000"/></svg>